<?xml version="1.0" encoding="UTF-8"?>
<svg preserveAspectRatio="xMidYMid slice" xmlns="http://www.w3.org/2000/svg" width="1200px" height="590px" viewBox="0 0 254 109" fill="none">
  <path fill-rule="evenodd" clip-rule="evenodd" d="M224.277 85.5177C222.908 84.8364 223.628 82.8285 224.997 82.3983C227.051 81.7887 229.032 80.8923 230.834 79.7091C232.996 78.5259 234.833 76.8407 236.166 74.7969C238.508 71.6058 239.913 68.7016 238.76 64.7933C238.58 64.1121 238.003 63.646 237.319 63.5384C236.49 63.646 235.806 64.1479 235.373 64.865C233.968 67.2673 234.869 71.068 232.059 72.6098C231.59 72.7891 231.086 72.7891 230.618 72.6456C228.888 72.4305 227.123 71.4983 225.105 72.1437C223.232 72.7891 222.115 74.7611 219.377 74.9762C216.639 75.1914 215.774 74.1516 214.801 72.3229C214.297 71.3907 213.973 69.6696 212.459 69.5262C210.946 69.4545 209.469 69.9565 208.352 70.9604C205.542 73.1476 204.533 74.6177 201.831 74.0081C199.021 73.3986 200.246 69.4904 198.661 68.8091C197.327 68.2713 194.697 70.7453 193.617 71.6775C192.536 72.6098 190.59 74.6894 189.617 75.3706C188.645 76.0519 186.951 75.9443 185.438 74.8687C181.799 72.2512 181.007 69.7055 181.043 68.343C181.115 66.4427 183.781 65.6539 184.321 65.5821C185.402 65.4029 186.051 65.7973 186.267 66.2992C186.771 67.5542 186.375 71.1397 187.924 71.4624C189.185 71.7134 191.815 69.4545 194.337 66.8371C195.382 65.7614 196.319 64.2914 197.327 63.2516C198.588 61.9966 199.885 61.3154 200.57 61.3512C201.867 61.4229 202.624 62.2835 202.588 63.8969C202.552 64.7575 201.903 66.7295 201.939 68.3071C202.011 69.5621 202.191 70.7094 203.164 70.8887C206.082 71.3907 209.577 65.618 210.406 64.5782C211.306 63.4308 213.612 62.6779 214.909 63.144C216.206 63.646 217.071 65.2594 217.143 66.6219C217.215 67.9844 216.963 69.9565 218.224 70.6736C219.737 71.57 222.475 70.4226 225.213 69.3111C226.727 68.7016 228.168 68.9884 229.465 68.5581C232.419 67.59 231.086 61.5305 235.121 60.1321C236.526 59.666 238.003 59.666 239.409 60.0604C241.57 60.921 242.075 63.4308 242.291 64.4348C242.435 65.116 243.804 68.9167 239.553 75.5499C237.499 78.741 235.157 80.9641 230.906 83.4739C228.672 84.8723 226.078 86.3782 224.277 85.5177Z" fill="#86D2ED"></path>
  <path fill-rule="evenodd" clip-rule="evenodd" d="M165.767 83.4739C165.731 82.47 167.964 71.8568 168.072 70.7095C168.108 70.315 167.1 70.2433 166.307 71.1397C165.118 72.4664 163.245 75.4782 159.245 74.7611C157.732 74.4743 156.543 73.3627 156.183 71.8927C156.003 71.319 155.751 69.8848 155.174 69.8489C154.454 69.8131 153.481 70.8529 153.085 71.821C152.58 73.04 152.112 74.3667 151.175 74.7611C150.022 75.2631 147.068 75.4065 145.483 73.9723C144.762 73.291 143.609 71.319 144.726 69.6338C145.879 67.8769 147.284 66.3351 148.905 65.0085C150.094 64.0404 152.4 63.2874 153.337 63.5025C154.526 63.7535 154.994 64.3989 155.715 64.3989C156.219 64.3989 158.633 64.1479 158.885 65.2953C159.282 67.3032 158.813 70.0282 159.534 70.9246C160.326 71.9285 161.84 72.1078 162.848 71.2831C162.884 71.2473 162.92 71.2473 162.956 71.2114C166.127 68.845 168.072 63.9328 172.756 63.3233C173.657 61.9608 177.584 52.997 179.782 50.7739C181.403 49.1604 183.997 49.0887 185.69 50.6664C187.636 52.8535 186.627 54.6104 184.321 55.3275C182.484 55.9371 180.863 57.1203 179.71 58.6979C176.395 62.6779 173.873 67.2315 172.252 72.1437C170.883 76.1236 170.522 79.5299 169.153 83.4022C169.045 83.6891 168.973 84.1193 168.721 84.2627C168.325 84.5137 165.839 85.697 165.767 83.4739ZM148.797 71.4266C145.555 70.9604 149.122 67.8769 150.274 67.2674C150.851 66.9805 152.688 66.8371 152.832 67.1956C153.193 68.092 150.166 71.6417 148.797 71.4266Z" fill="#86D2ED"></path>
  <path fill-rule="evenodd" clip-rule="evenodd" d="M119.902 78.4542C119.326 76.7331 120.335 74.6535 120.911 73.8647C121.74 72.7532 122.749 71.7492 123.829 70.8529C124.658 70.1716 126.64 68.845 128.225 67.5542C129.09 66.9088 129.882 66.12 130.531 65.2594C130.783 64.7933 130.819 63.8969 130.423 63.6459C130.206 63.5025 129.738 63.7894 129.378 63.9328C128.117 64.4706 125.775 65.9048 123.865 66.2634C122.785 66.4427 121.416 66.1917 120.839 65.618C120.299 65.0802 119.938 64.3631 120.731 63.5384C121.596 62.642 127.721 60.7058 128.009 60.6341C128.837 60.419 129.738 60.3114 130.603 60.3114C132.152 60.3114 132.837 61.4229 133.305 62.3552C133.953 63.5742 134.278 64.9009 134.242 66.2634C134.206 67.7693 132.548 68.5223 131.431 68.6298C130.855 68.6657 130.279 68.7732 129.702 68.9167C128.837 69.3828 128.009 69.9923 127.252 70.6377C125.883 71.8927 124.55 73.2193 124.298 75.6216C124.082 77.7729 127.036 77.4144 127.432 77.3785C128.982 77.0917 130.423 76.4821 131.72 75.5499C132.548 74.9762 133.413 74.4742 134.314 74.0081C134.89 73.6854 135.611 73.6496 136.187 73.9364C136.944 74.3667 137.232 75.3348 136.836 76.0877C136.764 76.1953 136.692 76.3029 136.62 76.3746C135.935 77.3785 133.989 77.7371 132.188 78.2749C130.567 78.7769 126.82 80.9282 122.821 80.6055C121.524 80.5696 120.371 79.7091 119.902 78.4542Z" fill="#86D2ED"></path>
  <path fill-rule="evenodd" clip-rule="evenodd" d="M90.3592 100.075C90.0349 100.218 89.3144 100.469 87.6571 100.971C85.8196 101.545 80.9558 102.083 77.0287 101.294C73.1376 100.505 57.3932 95.4137 61.1762 76.1594C62.8335 67.8769 67.8414 61.9608 78.5779 60.0604C83.2256 59.1641 87.9453 58.7696 92.665 58.8055C98.1413 58.8055 103.582 60.0246 108.554 62.3552C108.986 62.5703 109.562 63.0723 110.031 63.2874C110.895 63.5025 111.832 63.2516 112.445 62.5703C112.877 61.8532 112.805 61.2078 112.012 60.5624C109.13 58.196 102.285 56.1522 93.3856 55.7578C84.4866 55.3634 80.5955 56.1164 76.2361 56.4391C73.4258 56.6542 74.6868 55.3993 74.867 55.1841C78.0735 51.4552 83.766 44.7144 97.0965 36.5394C110.391 28.3643 118.894 26.6074 120.911 26.3564C123.073 26.1054 126.676 27.7906 129.594 28.3285C131.612 28.687 133.99 28.7946 134.566 28.0416C135.142 27.2887 134.854 26.5716 132.44 25.3525C130.026 24.1334 123.505 22.9502 121.92 23.0577C112.517 23.5597 104.122 28.436 94.4304 34.3164C84.7388 40.1966 75.1552 48.8736 72.2729 52.0647C70.3995 54.1443 68.49 55.7578 67.6253 56.8335C67.1569 57.443 65.6077 58.1243 64.779 58.3394C52.9617 60.5983 41.3966 63.9687 30.2278 68.3789C10.7004 76.0519 3.24256 82.7568 1.0088 86.1272C0.252203 87.3104 0.144118 88.7446 1.0088 89.5693C2.37788 90.6808 3.89108 91.5055 5.54839 92.0792C8.64683 93.1548 10.6644 93.5134 11.6732 93.3341C12.4298 93.2265 12.5739 92.7604 12.718 92.2585C12.9342 91.5055 12.3938 91.2187 12.2857 90.7167C12.0695 89.9637 10.8446 89.4976 8.89903 89.0315C7.8542 88.7446 4.46754 87.3463 7.602 84.7647C13.0423 80.2828 17.9782 76.9483 31.5609 71.5341C51.5926 63.6101 59.4829 63.144 61.5004 62.7854C63.446 62.4627 62.7254 63.3233 61.8607 64.4706C58.4741 69.7414 57.6094 71.8568 56.9609 76.6256C53.9705 98.067 71.1921 103.732 76.8125 104.557C84.1623 105.597 89.8188 103.445 91.368 102.513C92.1246 102.047 92.1246 101.33 91.8724 100.362C91.8003 99.9315 91.6562 99.4654 90.3592 100.075Z" fill="#86D2ED"></path>
  <path fill-rule="evenodd" clip-rule="evenodd" d="M95.6913 100.469C96.1597 100.218 96.9523 99.3578 96.7001 98.6766C96.3038 97.6726 95.295 97.9236 94.7186 98.1388C94.1061 98.3897 93.0253 98.4615 92.8091 99.1068C92.6289 99.6805 92.9172 99.824 93.0253 100.218C93.3135 101.115 94.5024 101.115 95.6913 100.469Z" fill="#86D2ED"></path>
  <path fill-rule="evenodd" clip-rule="evenodd" d="M97.7448 98.7483C98.1772 99.1068 99.3661 99.0351 100.699 98.4614C101.564 98.067 102.176 97.1706 103.257 96.8121C104.05 96.5252 105.059 95.7723 106.031 95.4137C108.697 94.5174 109.454 92.617 107.581 92.8322C104.987 93.119 98.4294 96.1667 97.7809 96.5611C96.8441 97.1706 96.9882 98.1746 97.7448 98.7483Z" fill="#86D2ED"></path>
  <path fill-rule="evenodd" clip-rule="evenodd" d="M16.7532 93.9078C16.1047 93.9078 15.4922 93.621 15.0599 93.1548C14.6636 92.7604 14.1952 92.7604 13.907 91.7923C13.6908 91.0752 15.24 90.4657 15.8885 90.5733C16.9694 90.7884 18.0503 90.8601 19.1311 90.7884C20.6443 90.5733 21.7972 90.645 22.3737 91.2904C22.8781 91.8282 23.0942 92.1867 22.3737 92.9756C21.8332 93.5851 20.4642 93.8361 19.023 93.8361C18.5546 93.8361 17.5098 93.9078 16.7532 93.9078Z" fill="#86D2ED"></path>
  <path fill-rule="evenodd" clip-rule="evenodd" d="M23.9948 91.7924C23.8867 91.4338 24.0669 91.0394 24.3911 90.8601C25.0036 90.5374 25.7242 90.4657 26.4087 90.5374C26.6969 90.645 27.0932 90.7884 27.1293 91.1111C27.2374 91.7207 27.2374 92.1151 26.5528 92.4736C26.0124 92.7605 26.0484 92.868 25.4359 92.868L24.9676 92.8322C24.247 92.9039 24.1749 92.3661 23.9948 91.7924Z" fill="#86D2ED"></path>
  <path d="M34.9844 31.7678V10.2188H46.8737V13.876H39.3077V18.7882H46.5134V22.5888H39.3077V28.0388H46.9097V31.8036H34.9844V31.7678Z" fill="#0C2074"></path>
  <path d="M60.9967 18.5731C57.7902 17.9277 56.2049 19.9715 56.2049 24.7402V31.7678H51.7734V14.5932H55.9888C55.9888 15.7405 55.8807 16.8879 55.6645 18.0353H55.7366C56.5652 15.8481 58.2225 13.9478 61.2129 14.1988L60.9967 18.5731Z" fill="#0C2074"></path>
  <path d="M72.9943 24.5967C72.9943 26.6763 71.4811 28.7559 69.3194 28.7559C68.0223 28.7559 67.2658 28.0388 67.2658 26.9273C67.2658 25.529 68.3106 24.2023 72.9943 24.2023V24.5967ZM77.5338 31.7678C77.4618 30.3336 77.4257 28.7201 77.4257 27.3576V20.1865C77.4257 16.4576 75.8765 14.1987 70.2921 14.1987C68.2025 14.1987 66.1128 14.5573 64.0953 15.2744L64.4916 18.9675C66.0768 18.1069 67.8062 17.6767 69.6076 17.605C72.0936 17.605 72.9943 18.5372 72.9943 20.33V21.2622C67.1216 21.2622 63.0144 23.4494 63.0144 27.5369C63.0144 30.2977 64.8158 32.0546 67.9503 32.0546C70.5083 32.0546 72.634 30.6921 73.4626 28.7559L73.4987 28.7918C73.3545 29.7599 73.3185 30.728 73.3185 31.6961L77.5338 31.7678Z" fill="#0C2074"></path>
  <path d="M85.2798 32.1264C84.0548 32.1264 82.8659 32.0188 81.6769 31.8037L81.785 28.1823C83.01 28.505 84.2349 28.6843 85.4959 28.6843C87.1893 28.6843 88.3062 28.003 88.3062 26.8557C88.3062 23.808 81.3167 25.529 81.3167 19.7205C81.3167 16.7086 83.7666 14.2346 88.6304 14.2346C89.6752 14.2705 90.7561 14.378 91.8009 14.5573L91.6568 18.0353C90.612 17.7484 89.5311 17.605 88.4503 17.605C86.7209 17.605 85.8923 18.2862 85.8923 19.3619C85.8923 22.1586 92.9898 20.9037 92.9898 26.4971C92.9898 29.8316 89.9995 32.1264 85.2798 32.1264Z" fill="#0C2074"></path>
  <path d="M117.597 31.7678V20.8678C117.597 19.0392 117.165 17.8918 115.544 17.8918C113.598 17.8918 111.581 20.1866 111.581 23.5211V31.7678H107.221V20.8678C107.221 19.1826 106.861 17.8918 105.168 17.8918C103.114 17.8918 101.204 20.33 101.204 23.5211V31.7678H96.7729V14.5932H100.988C100.988 15.633 100.916 16.6369 100.736 17.6767H100.808C101.853 15.5254 104.087 14.1629 106.501 14.2346C109.563 14.2346 110.86 16.0274 111.256 17.6767C112.301 15.5254 114.499 14.1629 116.877 14.2346C120.227 14.2346 122.065 16.0632 122.065 19.9715V31.8037L117.597 31.7678Z" fill="#0C2074"></path>
  <path d="M137.665 31.7678C137.665 30.7639 137.737 29.7241 137.881 28.7201L137.845 28.6843C136.764 30.8715 134.459 32.234 131.973 32.1264C128.082 32.1264 126.821 29.6524 126.821 26.6405V14.5932H131.216V25.5649C131.216 27.3576 131.684 28.4333 133.378 28.4333C135.648 28.4333 137.377 25.8876 137.377 22.8757V14.5932H141.808V31.7678H137.665Z" fill="#0C2074"></path>
  <path d="M149.626 32.1264C148.401 32.1264 147.213 32.0188 146.024 31.8037L146.132 28.1823C147.357 28.505 148.582 28.6843 149.843 28.6843C151.536 28.6843 152.653 28.003 152.653 26.8557C152.653 23.808 145.663 25.529 145.663 19.7205C145.663 16.7086 148.113 14.2346 152.977 14.2346C154.022 14.2705 155.103 14.378 156.148 14.5573L156.003 18.0353C154.959 17.7484 153.878 17.605 152.797 17.605C151.068 17.605 150.239 18.2862 150.239 19.3619C150.239 22.1586 157.337 20.9037 157.337 26.4971C157.337 29.8316 154.346 32.1264 149.626 32.1264Z" fill="#0C2074"></path>
  <path d="M185.475 31.7678L183.925 21.4773C183.601 19.4336 183.421 17.8559 183.241 16.35H183.169C182.845 17.8918 182.448 19.4336 181.98 20.9395L178.557 31.7678H174.414L171.099 21.7641C170.487 20.0072 170.019 18.1786 169.73 16.35H169.658C169.55 18.2503 169.298 19.9714 169.046 21.8359L167.821 31.7678H163.605L166.92 10.2188H171.784L175.387 21.298C175.891 22.7681 176.287 24.3099 176.576 25.8158H176.648C176.936 24.3099 177.368 22.8039 177.873 21.3339L181.584 10.2188H186.411L189.762 31.7678H185.475Z" fill="#0C2074"></path>
  <path d="M202.876 32.0546C195.311 32.0546 192.861 27.0349 192.861 21.6925C192.861 14.88 196.463 10.0754 203.705 10.0754C205.254 10.0754 206.804 10.2546 208.281 10.649L207.848 14.4139C206.443 13.9836 204.966 13.7685 203.489 13.7685C199.454 13.7685 197.472 16.8162 197.472 20.9754C197.472 25.6724 199.418 28.2898 203.777 28.2898C205.218 28.254 206.659 27.9671 207.993 27.3935L208.461 31.0866C206.659 31.7319 204.786 32.0546 202.876 32.0546Z" fill="#0C2074"></path>
</svg>
