<svg xmlns="http://www.w3.org/2000/svg" viewBox="0 0 100 130">
  <g stroke="#1a3a5c" stroke-linecap="round" stroke-linejoin="round" fill="none" stroke-width="11">
    <polyline points="13,15 50,64 87,15"/>
    <line x1="50" y1="64" x2="50" y2="122"/>
  </g>
  <path fill="#4caf73" stroke="#2d7a44" stroke-width="1.5" d="M 50,14 C 69,22 69,56 50,64 C 31,56 31,22 50,14 Z"/>
  <line stroke="#1f5c30" stroke-linecap="round" x1="50" y1="15" x2="50" y2="63" stroke-width="1.3"/>
  <g stroke-linecap="round" fill="none" stroke-width="0.9" stroke="rgb(38,88,58)">
    <path d="M 50,36 C 47,31 43,26 40,22"/>
    <path d="M 50,36 C 53,31 57,26 60,22"/>
    <path d="M 50,48 C 47,43 42,38 36,33"/>
    <path d="M 50,48 C 53,43 58,38 64,33"/>
    <path d="M 50,56 C 47,52 41,48 36,43"/>
    <path d="M 50,56 C 53,52 59,48 64,43"/>
  </g>
  <line stroke="#1f5c30" stroke-linecap="round" x1="50" y1="14" x2="50" y2="7" stroke-width="1.3"/>
</svg>
