<svg xmlns="http://www.w3.org/2000/svg" viewBox="0 0 100 130" width="100" height="130">
  <g stroke="#1a3a5c" stroke-linecap="round" stroke-linejoin="round" fill="none" stroke-width="9">
    <polyline points="12,10 50,56 88,10"/>
    <line x1="50" y1="56" x2="50" y2="122"/>
  </g>

  <!-- Leaf: length 49px, width ~40px (control points ±20 from center) -->
  <path d="M 50,7 C 70,14 70,48 50,56 C 30,48 30,14 50,7 Z"
        fill="#4caf73" stroke="#2d7a44" stroke-width="1.5"/>
  <line x1="50" y1="8" x2="50" y2="55" stroke="#1f5c30" stroke-width="1.3" stroke-linecap="round"/>
  <path d="M 50,22 C 44,27 41,35 39,44" stroke="#1f5c30" stroke-width="0.9" fill="none" stroke-linecap="round"/>
  <path d="M 50,36 C 45,40 43,46 41,52" stroke="#1f5c30" stroke-width="0.9" fill="none" stroke-linecap="round"/>
  <path d="M 50,22 C 56,27 59,35 61,44" stroke="#1f5c30" stroke-width="0.9" fill="none" stroke-linecap="round"/>
  <path d="M 50,36 C 55,40 57,46 59,52" stroke="#1f5c30" stroke-width="0.9" fill="none" stroke-linecap="round"/>
</svg>
